# AST/ASF file generated using VICON BodyLanguage
# -----------------------------------------------
:version 1.10
:name VICON
:units
  mass 1.0
  length 0.1
  angle deg
:documentation
   .ast/.asf automatically generated from VICON data using
   VICON BodyBuilder and BodyLanguage model FULLBODY5.MOD
:root
   order TX TY TZ RZ RY RX
   axis XYZ
   position 0 0 0  
   orientation 0 -0 0 
:bonedata
  begin
     id 1 
     name lhipjoint
     direction 0.961525 -0.229516 0.150972 
     length 0.502153 
     axis 0 -0 0  XYZ
  end
  begin
     id 2 
     name lfemur
     direction 0.173648 -0.984808 0  
     length 1.83052  
     axis 0 -0 10  XYZ
    dof rx ry rz
    limits (-180.0 180.0)
           (-180.0 180.0)
           (-180.0 180.0)
  end
  begin
     id 3 
     name ltibia
     direction 0.173629 -0.984811 0   
     length 1.50296   
     axis 0 -0 10   XYZ
    dof rx ry rz
    limits (-180.0 180.0)
           (-180.0 180.0)
           (-180.0 180.0)
  end
  begin
     id 4 
     name lfoot
     direction 7.59329e-012 -0.227408 0.9738   
     length 0.574743   
     axis -90 -1.73656e-015 10   XYZ
    dof rx ry rz
    limits (-180.0 180.0)
           (-180.0 180.0)
           (-180.0 180.0)
  end
  begin
     id 5 
     name ltoes
     direction 7.79885e-012 -4.41741e-011 1   
     length 0.28489   
     axis -90 -1.73656e-015 10   XYZ
    dof rx ry rz
    limits (-180.0 180.0)
           (-180.0 180.0)
           (-180.0 180.0)
  end
  begin
     id 6 
     name rhipjoint
     direction -0.970498 -0.201437 0.132502   
     length 0.572149  
     axis 0 -0 0  XYZ 
  end
  begin
     id 7 
     name rfemur
     direction -0.173648 -0.984808 0   
     length 1.71866   
     axis 0 -0 -10   XYZ
    dof rx ry rz
    limits (-180.0 180.0)
           (-180.0 180.0)
           (-180.0 180.0)
  end
  begin
     id 8 
     name rtibia
     direction -0.173624 -0.984812 0   
     length 1.42623   
     axis 0 -0 -10   XYZ
    dof rx ry rz
    limits (-180.0 180.0)
           (-180.0 180.0)
           (-180.0 180.0)
 end
 begin
     id 9 
     name rfoot
     direction -7.12931e-012 -0.404275 0.914637   
     length 0.524692  
     axis -90 1.73656e-015 -10   XYZ
    dof rx ry rz
    limits (-180.0 180.0)
           (-180.0 180.0)
           (-180.0 180.0)
  end
  begin
     id 10 
     name rtoes
     direction -7.79289e-012 -4.41454e-011 1   
     length 0.254983   
     axis -90 1.73656e-015 -10   XYZ
    dof rx ry rz
    limits (-180.0 180.0)
           (-180.0 180.0)
           (-180.0 180.0)
  end
  begin
     id 11 
     name lowerback
     direction -0.0214086 0.993738 0.109665   
     length 0.417614   
     axis 0 -0 0   XYZ
    dof rx ry rz
    limits (-180.0 180.0)
           (-180.0 180.0)
           (-180.0 180.0)
  end
  begin
     id 12 
     name upperback
     direction 8.15962e-005 0.99996 0.00893412   
     length 0.419234   
     axis 0 -0 0   XYZ
    dof rx ry rz
    limits (-180.0 180.0)
           (-180.0 180.0)
           (-180.0 180.0)
  end
  begin
     id 13 
     name thorax
     direction 0.00826031 0.999067 -0.0423848   
     length 0.424697   
     axis 0 -0 0   XYZ
    dof rx ry rz
    limits (-180.0 180.0)
           (-180.0 180.0)
           (-180.0 180.0)
  end
  begin
     id 14 
     name lowerneck
     direction -0.0196262 0.994272 -0.105058   
     length 0.355877   
     axis 0 -0 0   XYZ
    dof rx ry rz
    limits (-180.0 180.0)
           (-180.0 180.0)
           (-180.0 180.0)
  end
  begin
     id 15 
     name upperneck
     direction 0.000117372 0.999091 0.0426261   
     length 0.351054   
     axis 0 -0 0   XYZ
    dof rx ry rz
    limits (-180.0 180.0)
           (-180.0 180.0)
           (-180.0 180.0)
  end
  begin
     id 16
     name head
     direction 0.00157618 0.999651 0.0263619  
     length 0.374844  
     axis 0 -0 0   XYZ
    dof rx ry rz
    limits (-180.0 180.0)
           (-180.0 180.0)
           (-180.0 180.0)
  end
  begin
     id 17 
     name lshoulderjoint
     direction 0.981627 -0.190809 0  
     length 0.701763  
     axis 0 -0 -11   XYZ
    dof rx ry rz
    limits (-180.0 180.0)
           (-180.0 180.0)
           (-180.0 180.0)
  end
  begin
     id 18 
     name lhumerus
     direction 0.48481 -0.87462 -1.80676e-026   
     length 0.994704   
     axis -180 5.14477e-009 -151   XYZ
    dof rx ry rz
    limits (-180.0 180.0)
           (-180.0 180.0)
           (-180.0 180.0)
  end
  begin
     id 19
     name lradius
     direction 0.48481 -0.87462 -3.2569e-026   
     length 0.617638   
     axis -180 5.14477e-009 -151   XYZ
    dof rx ry rz
    limits (-180.0 180.0)
           (-180.0 180.0)
           (-180.0 180.0)
  end
  begin
     id 20
     name lwrist
     direction 0.48481 -0.87462 -6.73202e-026   
     length 0.308819   
     axis -180 5.14477e-009 -151   XYZ
    dof rx ry rz
    limits (-180.0 180.0)
           (-180.0 180.0)
           (-180.0 180.0)
  end
  begin
     id 21 
     name lhand
     direction 0.478366 -0.863761 -0.158376   
     length 0.291656   
     axis -180 5.14477e-009 -151   XYZ
    dof rx ry rz
    limits (-180.0 180.0)
           (-180.0 180.0)
           (-180.0 180.0)
  end
  begin
     id 22 
     name rshoulderjoint
     direction -0.981627 -0.190809 0   
     length 0.66654  
     axis 0 -0 11   XYZ 
    dof rx ry rz
    limits (-180.0 180.0)
           (-180.0 180.0)
           (-180.0 180.0)
  end
  begin
     id 23 
     name rhumerus
     direction -0.48481 -0.87462 1.77576e-026  
     length 1.15089   
     axis 180 5.14477e-009 151   XYZ
    dof rx ry rz
    limits (-180.0 180.0)
           (-180.0 180.0)
           (-180.0 180.0)
  end
  begin
     id 24 
     name rradius
     direction -0.48481 -0.87462 3.79421e-026   
     length 0.613887   
     axis 180 5.14477e-009 151   XYZ
    dof rx ry rz
    limits (-180.0 180.0)
           (-180.0 180.0)
           (-180.0 180.0)
  end
  begin
     id 25 
     name rwrist
     direction -0.48481 -0.87462 5.43623e-026   
     length 0.306944   
     axis 180 5.14477e-009 151   XYZ
    dof rx ry rz
    limits (-180.0 180.0)
           (-180.0 180.0)
           (-180.0 180.0)
  end
  begin
     id 26
     name rhand
     direction -0.479273 -0.864638 -0.150661   
     length 0.306429   
     axis 180 5.14477e-009 151   XYZ
    dof rx ry rz
    limits (-180.0 180.0)
           (-180.0 180.0)
           (-180.0 180.0)
  end
:hierarchy
  begin
    root lhipjoint rhipjoint lowerback 
    lhipjoint lfemur
    lfemur ltibia
    ltibia lfoot
    lfoot ltoes
    rhipjoint rfemur
    rfemur rtibia
    rtibia rfoot
    rfoot rtoes
    lowerback upperback
    upperback thorax
    thorax lowerneck lshoulderjoint rshoulderjoint
    lowerneck upperneck
    upperneck head
    lshoulderjoint lhumerus
    lhumerus lradius
    lradius lwrist
    lwrist lhand
    rshoulderjoint rhumerus
    rhumerus rradius
    rradius rwrist
    rwrist rhand
  end

:FULLY-SPECIFIED
:DEGREES
1534
root -2.76251 3.59444 -0.472295 -50.064 77.0752 58.2452
lowerback -15.9944 -0.0792864 -4.98082
upperback -2.98512 1.04007 -2.12737
thorax 5.73738 0.5095 0.783862
lowerneck 13.9188 0.82159 -0.973812
upperneck -1.81136 1.16369 2.76653
head -3.0693 0.498506 1.00211
rshoulderjoint 1.73811 -4.81362 -30.8808
rhumerus -2.01002 -19.5903 -56.7533
rradius 29.5795 -5.725e-014 8.44835e-014
rwrist 5.55263e-013 9.86338 1.1299e-013
rhand 11.6295 -8.39514 29.7872
lshoulderjoint 3.05459 11.557 25.9151
lhumerus 1.10179 36.9688 54.3227
lradius 15.624 1.78111e-013 1.20464e-013
lwrist 3.39112e-013 -2.72263 1.54431e-013
lhand 28.2209 2.11939 -4.68334
rfemur -28.2841 9.23 4.90788
rtibia 66.046 8.54774e-015 -2.46493e-014
rfoot -0.856311 13.5127 -20.3229
rtoes 1.90833e-014 9.48203e-014 -5.725e-014
lfemur -13.007 -3.6834 -24.0929
ltibia 7.79794 1.27222e-014 -2.8625e-014
lfoot -4.21301 -3.94191 7.76667
ltoes -4.85035e-014 1.09083e-013 3.93594e-014
1535
root -2.72168 3.59936 -0.473581 -50.5432 77.3459 58.4674
lowerback -15.5877 -0.285642 -4.79215
upperback -2.94707 0.692224 -1.97642
thorax 5.57289 0.340892 0.764348
lowerneck 14.1269 0.934538 -1.12436
upperneck -1.98655 1.29249 2.81469
head -3.17532 0.558548 1.03719
rshoulderjoint 1.66928 -4.60195 -30.9624
rhumerus -2.80197 -18.8256 -56.3093
rradius 29.3734 -1.04958e-013 1.13307e-014
rwrist -1.35487e-013 9.61503 1.56455e-013
rhand 11.3876 -8.57548 29.6536
lshoulderjoint 3.04581 11.4056 26.0599
lhumerus 2.19758 37.4804 55.197
lradius 15.7144 1.27222e-013 -4.17448e-015
lwrist -1.09826e-013 -2.40041 -8.11754e-014
lhand 29.1998 0.51114 -4.68473
rfemur -29.2688 9.13677 4.99694
rtibia 64.876 -1.59028e-015 1.59028e-015
rfoot -1.37889 13.671 -20.5557
rtoes -1.04958e-013 -2.98177e-014 9.54166e-015
lfemur -11.0049 -3.73631 -23.9977
ltibia 5.28155 -4.77083e-015 6.36111e-015
lfoot -3.42927 -4.30099 7.60235
ltoes 3.89618e-014 -1.58158e-014 7.95139e-016
1536
root -2.68134 3.60327 -0.474855 -51.3261 77.6112 58.9306
lowerback -15.1527 -0.472291 -4.52446
upperback -2.89044 0.357602 -1.82309
thorax 5.41172 0.178701 0.708285
lowerneck 14.1567 1.01819 -1.23361
upperneck -2.12048 1.38539 2.82429
head -3.23146 0.603165 1.05408
rshoulderjoint 1.65278 -4.55107 -30.9835
rhumerus -3.46692 -18.5677 -56.0084
rradius 29.2058 3.49861e-014 -2.40529e-014
rwrist -3.22519e-013 9.5429 -2.41889e-014
rhand 11.4228 -8.38677 29.3705
lshoulderjoint 3.02601 11.3027 26.0947
lhumerus 2.89123 34.3832 55.2241
lradius 15.9652 -1.27222e-014 4.53229e-014
lwrist -2.19936e-013 -3.77558 8.12806e-014
lhand 29.4046 3.29699 -5.75807
rfemur -30.2017 9.05179 5.12864
rtibia 63.4514 -7.95139e-015 -3.18055e-015
rfoot -1.6315 13.8123 -20.6581
rtoes 5.725e-014 -2.10712e-014 1.27222e-014
lfemur -8.0358 -3.82253 -23.8307
ltibia 0.513738 0 -4.77083e-015
lfoot -1.49186 -4.09338 7.42935
ltoes 2.22639e-014 5.55355e-015 1.55052e-014
1537
root -2.63993 3.60632 -0.476248 -51.7435 77.9257 58.9895
lowerback -14.7395 -0.659595 -4.22552
upperback -2.73685 0.0191984 -1.63752
thorax 5.3636 0.0095953 0.670283
lowerneck 14.0785 1.12855 -1.43699
upperneck -2.27445 1.49997 2.87643
head -3.27653 0.657881 1.10055
rshoulderjoint 1.63248 -4.47833 -31.0521
rhumerus -4.04097 -18.2133 -55.7259
rradius 29.0792 -4.6118e-013 1.10822e-013
rwrist -2.54689e-013 9.40713 6.75409e-013
rhand 11.4871 -8.22853 29.1229
lshoulderjoint 3.02625 11.3219 26.0716
lhumerus 3.63389 31.4906 55.2496
lradius 16.3749 5.66139e-013 1.03766e-013
lwrist -1.58038e-013 -4.99834 -1.46864e-013
lhand 29.2518 5.02047 -7.26672
rfemur -30.916 9.00837 5.27703
rtibia 61.7505 9.54166e-015 -1.35174e-014
rfoot -1.80015 14.0982 -20.6104
rtoes 1.20861e-013 2.25819e-013 -1.87653e-013
lfemur -6.86606 -3.85156 -23.64
ltibia 8.74653e-015 0 -4.45278e-014
lfoot -1.78661 -4.05325 7.33662
ltoes -4.01545e-014 1.2506e-013 1.63003e-014
1538
root -2.60098 3.60791 -0.477203 -53.4267 78.1835 60.3368
lowerback -14.3449 -0.896707 -3.97712
upperback -2.6877 -0.371167 -1.46902
thorax 5.21529 -0.180832 0.63622
lowerneck 14.0762 1.2045 -1.47582
upperneck -2.46106 1.59061 2.82051
head -3.34349 0.703128 1.08321
rshoulderjoint 1.598 -4.40012 -30.9825
rhumerus -4.67653 -17.7966 -55.3017
rradius 29.0176 -2.60805e-013 -5.35725e-014
rwrist 6.51004e-013 9.28625 5.80102e-014
rhand 11.446 -8.21003 28.9872
lshoulderjoint 3.02358 11.2821 26.109
lhumerus 4.28732 28.6548 55.162
lradius 16.9217 2.76708e-013 1.07344e-014
lwrist 5.34189e-013 -6.11224 -8.79653e-014
lhand 28.7219 6.29027 -8.99476
rfemur -31.7461 8.86023 5.39002
rtibia 59.829 2.78299e-015 4.77083e-015
rfoot -1.86062 14.2374 -20.52
rtoes -2.19458e-013 -3.10104e-014 0
lfemur -6.16757 -4.09334 -23.416
ltibia 4.77083e-015 -1.27222e-014 8.74653e-015
lfoot -2.23495 -4.21126 7.29182
ltoes 1.78906e-014 -2.30217e-014 1.98785e-015
1539
root -2.56115 3.60912 -0.477947 -54.6338 78.4747 61.2966
lowerback -13.917 -1.10971 -3.83988
upperback -2.59013 -0.710736 -1.32635
thorax 5.0974 -0.349827 0.650059
lowerneck 13.9619 1.27971 -1.60791
upperneck -2.59686 1.67201 2.87801
head -3.374 0.741125 1.121
rshoulderjoint 1.58342 -4.35351 -31.0093
rhumerus -5.32958 -17.7072 -55.008
rradius 28.9521 2.44903e-013 -1.14301e-014
rwrist 1.19272e-013 9.37068 -2.80451e-013
rhand 11.51 -8.14871 28.8245
lshoulderjoint 3.01855 11.2494 26.1262
lhumerus 4.9554 26.031 55.0425
lradius 17.5829 -3.21236e-013 -5.76476e-014
lwrist 4.80773e-014 -7.10354 8.01289e-014
lhand 27.9525 7.26522 -10.6952
rfemur -32.3894 8.73713 5.39957
rtibia 57.6789 -2.78299e-015 7.95139e-015
rfoot -1.93142 14.2569 -20.3442
rtoes -1.74931e-013 -1.37957e-013 8.5875e-014
lfemur -5.36579 -4.26508 -23.2935
ltibia -1.98785e-014 1.59028e-015 2.8625e-014
lfoot -2.74535 -4.35315 7.21957
ltoes 5.28767e-014 -1.17233e-013 1.98785e-015
1540
root -2.52131 3.60937 -0.478187 -56.6073 78.6725 62.9918
lowerback -13.6263 -1.34146 -3.7253
upperback -2.55906 -1.06456 -1.14019
thorax 4.986 -0.524624 0.721353
lowerneck 13.9937 1.32643 -1.58306
upperneck -2.79921 1.72989 2.75018
head -3.45043 0.77254 1.07039
rshoulderjoint 1.58067 -4.32701 -31.0896
rhumerus -5.94583 -17.239 -54.7552
rradius 28.9195 6.36111e-015 1.71949e-014
rwrist 5.12463e-013 9.31282 -5.47916e-014
rhand 11.3542 -8.2092 28.9474
lshoulderjoint 2.99492 11.1684 26.1155
lhumerus 5.5701 23.5647 54.8813
lradius 18.3414 -2.8625e-014 0
lwrist 5.58953e-013 -8.07091 9.95836e-014
lhand 26.9711 8.25797 -12.3177
rfemur -33.0637 8.49038 5.45231
rtibia 55.3105 6.36111e-015 7.95139e-016
rfoot -2.10221 14.4247 -20.1634
rtoes -7.31528e-014 6.87795e-014 -4.45278e-014
lfemur -4.70118 -4.5269 -23.105
ltibia 4.77083e-015 -6.36111e-015 -1.43125e-014
lfoot -3.31747 -4.23641 7.19066
ltoes -5.96354e-015 2.37796e-014 -1.92821e-014
